<svg width="21" height="14" viewBox="0 0 21 14" fill="none" xmlns="http://www.w3.org/2000/svg">
<g clip-path="url(#clip0_30_8285)">
<path d="M13.4068 0.509976C13.2376 0.68204 13.1428 0.913678 13.1428 1.15498C13.1428 1.39627 13.2376 1.62791 13.4068 1.79998L17.6568 6.07998H1.5568C1.42861 6.06656 1.29902 6.08022 1.17645 6.12009C1.05387 6.15996 0.941044 6.22514 0.845274 6.31141C0.749503 6.39768 0.672929 6.50311 0.620515 6.62087C0.568101 6.73862 0.541016 6.86608 0.541016 6.99498C0.541016 7.12387 0.568101 7.25133 0.620515 7.36909C0.672929 7.48684 0.749503 7.59227 0.845274 7.67854C0.941044 7.76481 1.05387 7.82999 1.17645 7.86986C1.29902 7.90973 1.42861 7.9234 1.5568 7.90998H17.6568L13.3968 12.25C13.23 12.4233 13.1368 12.6544 13.1368 12.895C13.1368 13.1355 13.23 13.3667 13.3968 13.54C13.4795 13.6228 13.5777 13.6885 13.6858 13.7334C13.7939 13.7782 13.9098 13.8013 14.0268 13.8013C14.1438 13.8013 14.2597 13.7782 14.3678 13.7334C14.4759 13.6885 14.5741 13.6228 14.6568 13.54L20.3968 7.64998C20.4748 7.56376 20.5389 7.46592 20.5868 7.35998C20.6349 7.24967 20.6588 7.13031 20.6568 7.00998C20.6577 6.89143 20.6353 6.77387 20.5907 6.66404C20.546 6.55421 20.4802 6.45427 20.3968 6.36998L14.6568 0.529976C14.4982 0.36765 14.2835 0.272065 14.0567 0.262771C13.8299 0.253477 13.6082 0.331176 13.4368 0.479976L13.4068 0.509976Z" fill="black"/>
</g>
<defs>
<clipPath id="clip0_30_8285">
<rect width="20" height="13.5" fill="white" transform="translate(0.65625 0.25)"/>
</clipPath>
</defs>
</svg>
